<svg width="60" height="72" viewBox="0 0 60 72" fill="none" xmlns="http://www.w3.org/2000/svg">
    <path d="M35.131 8H16C8.26802 8 2 14.268 2 22V22C2 29.732 8.26801 36 16 36H44C51.732 36 58 42.268 58 50V50C58 57.732 51.732 64 44 64H24.911" stroke="white" stroke-width="4" />
    <path d="M15.5 64C15.5 67.5899 18.4101 70.5 22 70.5C25.5899 70.5 28.5 67.5898 28.5 64C28.5 60.4101 25.5899 57.5 22 57.5C18.4101 57.5 15.5 60.4102 15.5 64Z" fill="white" stroke="#55BBF7" stroke-width="3" />
    <path d="M31.5 8C31.5 11.5899 34.4101 14.5 38 14.5C41.5899 14.5 44.5 11.5898 44.5 8C44.5 4.41015 41.5899 1.5 38 1.5C34.4101 1.5 31.5 4.41015 31.5 8Z" fill="white" stroke="#55BBF7" stroke-width="3" />
</svg>
