<svg width="7" height="9" viewBox="0 0 7 9" fill="none" xmlns="http://www.w3.org/2000/svg">
<path d="M5.53276 0.1875H1.50038L0.867846 0.384795L0.235316 1.17397L0.15625 2.09468L1.26318 3.08116L0.472515 3.60728L0.15625 5.0541L1.18411 6.10634L0.630648 6.63246L0.15625 7.882L1.02598 8.86847L2.29104 9L3.39797 8.27659L3.5561 5.44869L4.82116 6.10634L5.76995 5.97481L6.56062 5.44869L6.71875 4.33069L6.08622 3.40998L5.69089 3.01539L6.16529 2.6208L6.71875 2.09468L6.63968 1.23974L6.16529 0.45056L5.53276 0.1875Z" fill="#FF0000"/>
<mask id="path-2-inside-1" fill="white">
<path d="M5.97636 3.16982C6.34905 3.00176 6.6481 2.72458 6.825 2.38326C7.00189 2.04193 7.04626 1.65649 6.9509 1.28946C6.85554 0.922433 6.62604 0.595353 6.29964 0.361289C5.97325 0.127226 5.5691 -8.94936e-05 5.15278 4.71983e-08H1.84722C1.4309 -8.94936e-05 1.02675 0.127226 0.700356 0.361289C0.37396 0.595353 0.144464 0.922433 0.0491017 1.28946C-0.0462603 1.65649 -0.00189316 2.04193 0.175005 2.38326C0.351903 2.72458 0.650953 3.00176 1.02364 3.16982C0.716163 3.30839 0.457468 3.5219 0.276634 3.78633C0.0958008 4.05076 7.43022e-08 4.35564 2.5491e-06 4.66668C5.02391e-06 4.97773 0.0958107 5.2826 0.276648 5.54703C0.457486 5.81146 0.716185 6.02497 1.02366 6.16354C0.729194 6.29645 0.479276 6.49819 0.299751 6.7479C0.120225 6.99761 0.0176096 7.28622 0.00251521 7.58388C-0.0125791 7.88154 0.0603957 8.17745 0.213894 8.44101C0.367391 8.70457 0.595839 8.92621 0.875614 9.08301C1.15539 9.23981 1.47633 9.32608 1.80526 9.3329C2.13419 9.33971 2.45915 9.26683 2.74655 9.12178C3.03395 8.97673 3.27335 8.76479 3.44 8.50786C3.60665 8.25094 3.69449 7.95836 3.69444 7.66038V5.69168C3.86446 5.89023 4.08169 6.05153 4.33 6.1636C4.57831 6.27567 4.85131 6.33562 5.12872 6.339C5.40613 6.34238 5.68081 6.28909 5.93236 6.18312C6.1839 6.07714 6.40585 5.92118 6.5817 5.72684C6.75755 5.5325 6.88278 5.30477 6.9481 5.06057C7.01341 4.81637 7.01713 4.56198 6.95897 4.3163C6.90081 4.07062 6.78227 3.83997 6.61215 3.64149C6.44204 3.443 6.22473 3.28179 5.97636 3.16982ZM6.61111 1.67297C6.61067 2.02299 6.45702 2.35857 6.18383 2.60615C5.91063 2.85373 5.5402 2.9931 5.15373 2.99372L5.15278 2.99369L5.1509 2.99374L3.69444 2.99369V0.352205H5.15278C5.53942 0.352601 5.91009 0.491881 6.18349 0.739487C6.45688 0.987092 6.61067 1.3228 6.61111 1.67297ZM4.02098 3.34591C3.89901 3.43184 3.78932 3.53119 3.69444 3.64165V3.3459L4.02098 3.34591ZM0.388891 1.67297C0.38933 1.3228 0.543115 0.987092 0.816511 0.739487C1.08991 0.491881 1.46058 0.352601 1.84722 0.352205H3.30556V2.99369H1.84722L1.8463 2.99372C1.45982 2.9931 1.08939 2.85373 0.816191 2.60615C0.542995 2.35857 0.389334 2.02299 0.388891 1.67297ZM1.84722 8.98113C1.65562 8.98127 1.46585 8.94721 1.28879 8.8809C1.11172 8.81459 0.950817 8.71733 0.815274 8.59467C0.679731 8.47202 0.572207 8.32637 0.498846 8.16606C0.425484 8.00575 0.387724 7.83392 0.387724 7.66038C0.387724 7.48685 0.425484 7.31502 0.498846 7.15471C0.572207 6.9944 0.679731 6.84875 0.815274 6.72609C0.950817 6.60344 1.11172 6.50617 1.28879 6.43986C1.46585 6.37355 1.65562 6.3395 1.84722 6.33964L3.30556 6.3396V7.66038C3.30512 8.01055 3.15133 8.34626 2.87793 8.59386C2.60454 8.84146 2.23386 8.98074 1.84722 8.98113ZM3.30556 5.98739L1.84722 5.98743C1.46057 5.98738 1.08978 5.84826 0.816355 5.60066C0.542933 5.35307 0.389268 5.01727 0.389145 4.66709C0.389023 4.31692 0.542453 3.98103 0.815702 3.73328C1.08895 3.48553 1.45965 3.3462 1.8463 3.34592L1.84722 3.34594L3.30556 3.34591V5.98739ZM5.15278 5.98743C4.76625 5.98732 4.39559 5.84824 4.12223 5.60075C3.84887 5.35326 3.69518 5.0176 3.69493 4.66754C3.69468 4.31747 3.84789 3.98164 4.1209 3.73383C4.39391 3.48602 4.76438 3.3465 5.1509 3.34594H5.15278L5.1537 3.34592C5.54023 3.34636 5.91076 3.48577 6.18386 3.7335C6.45696 3.98123 6.6103 4.31703 6.61018 4.6671C6.61005 5.01716 6.45648 5.35287 6.18321 5.60045C5.90993 5.84802 5.53931 5.98721 5.15278 5.98743Z"/>
</mask>
<path d="M5.97636 3.16982C6.34905 3.00176 6.6481 2.72458 6.825 2.38326C7.00189 2.04193 7.04626 1.65649 6.9509 1.28946C6.85554 0.922433 6.62604 0.595353 6.29964 0.361289C5.97325 0.127226 5.5691 -8.94936e-05 5.15278 4.71983e-08H1.84722C1.4309 -8.94936e-05 1.02675 0.127226 0.700356 0.361289C0.37396 0.595353 0.144464 0.922433 0.0491017 1.28946C-0.0462603 1.65649 -0.00189316 2.04193 0.175005 2.38326C0.351903 2.72458 0.650953 3.00176 1.02364 3.16982C0.716163 3.30839 0.457468 3.5219 0.276634 3.78633C0.0958008 4.05076 7.43022e-08 4.35564 2.5491e-06 4.66668C5.02391e-06 4.97773 0.0958107 5.2826 0.276648 5.54703C0.457486 5.81146 0.716185 6.02497 1.02366 6.16354C0.729194 6.29645 0.479276 6.49819 0.299751 6.7479C0.120225 6.99761 0.0176096 7.28622 0.00251521 7.58388C-0.0125791 7.88154 0.0603957 8.17745 0.213894 8.44101C0.367391 8.70457 0.595839 8.92621 0.875614 9.08301C1.15539 9.23981 1.47633 9.32608 1.80526 9.3329C2.13419 9.33971 2.45915 9.26683 2.74655 9.12178C3.03395 8.97673 3.27335 8.76479 3.44 8.50786C3.60665 8.25094 3.69449 7.95836 3.69444 7.66038V5.69168C3.86446 5.89023 4.08169 6.05153 4.33 6.1636C4.57831 6.27567 4.85131 6.33562 5.12872 6.339C5.40613 6.34238 5.68081 6.28909 5.93236 6.18312C6.1839 6.07714 6.40585 5.92118 6.5817 5.72684C6.75755 5.5325 6.88278 5.30477 6.9481 5.06057C7.01341 4.81637 7.01713 4.56198 6.95897 4.3163C6.90081 4.07062 6.78227 3.83997 6.61215 3.64149C6.44204 3.443 6.22473 3.28179 5.97636 3.16982ZM6.61111 1.67297C6.61067 2.02299 6.45702 2.35857 6.18383 2.60615C5.91063 2.85373 5.5402 2.9931 5.15373 2.99372L5.15278 2.99369L5.1509 2.99374L3.69444 2.99369V0.352205H5.15278C5.53942 0.352601 5.91009 0.491881 6.18349 0.739487C6.45688 0.987092 6.61067 1.3228 6.61111 1.67297ZM4.02098 3.34591C3.89901 3.43184 3.78932 3.53119 3.69444 3.64165V3.3459L4.02098 3.34591ZM0.388891 1.67297C0.38933 1.3228 0.543115 0.987092 0.816511 0.739487C1.08991 0.491881 1.46058 0.352601 1.84722 0.352205H3.30556V2.99369H1.84722L1.8463 2.99372C1.45982 2.9931 1.08939 2.85373 0.816191 2.60615C0.542995 2.35857 0.389334 2.02299 0.388891 1.67297ZM1.84722 8.98113C1.65562 8.98127 1.46585 8.94721 1.28879 8.8809C1.11172 8.81459 0.950817 8.71733 0.815274 8.59467C0.679731 8.47202 0.572207 8.32637 0.498846 8.16606C0.425484 8.00575 0.387724 7.83392 0.387724 7.66038C0.387724 7.48685 0.425484 7.31502 0.498846 7.15471C0.572207 6.9944 0.679731 6.84875 0.815274 6.72609C0.950817 6.60344 1.11172 6.50617 1.28879 6.43986C1.46585 6.37355 1.65562 6.3395 1.84722 6.33964L3.30556 6.3396V7.66038C3.30512 8.01055 3.15133 8.34626 2.87793 8.59386C2.60454 8.84146 2.23386 8.98074 1.84722 8.98113ZM3.30556 5.98739L1.84722 5.98743C1.46057 5.98738 1.08978 5.84826 0.816355 5.60066C0.542933 5.35307 0.389268 5.01727 0.389145 4.66709C0.389023 4.31692 0.542453 3.98103 0.815702 3.73328C1.08895 3.48553 1.45965 3.3462 1.8463 3.34592L1.84722 3.34594L3.30556 3.34591V5.98739ZM5.15278 5.98743C4.76625 5.98732 4.39559 5.84824 4.12223 5.60075C3.84887 5.35326 3.69518 5.0176 3.69493 4.66754C3.69468 4.31747 3.84789 3.98164 4.1209 3.73383C4.39391 3.48602 4.76438 3.3465 5.1509 3.34594H5.15278L5.1537 3.34592C5.54023 3.34636 5.91076 3.48577 6.18386 3.7335C6.45696 3.98123 6.6103 4.31703 6.61018 4.6671C6.61005 5.01716 6.45648 5.35287 6.18321 5.60045C5.90993 5.84802 5.53931 5.98721 5.15278 5.98743Z" fill="white"/>
<path d="M5.15278 4.71983e-08V10H5.15493L5.15278 4.71983e-08ZM1.84722 4.71983e-08L1.84507 10H1.84722V4.71983e-08ZM1.02364 3.16982L5.13247 12.2867L25.3555 3.17247L5.13446 -5.94616L1.02364 3.16982ZM1.02366 6.16354L5.13775 15.278L25.3463 6.15636L5.13237 -2.9534L1.02366 6.16354ZM3.69444 7.66038H-6.30556V7.66194L3.69444 7.66038ZM3.69444 5.69168L11.2902 -0.812453L-6.30556 -21.3616V5.69168H3.69444ZM5.15373 2.99372L4.91676 12.9909L5.04321 12.9939L5.16969 12.9937L5.15373 2.99372ZM5.15278 2.99369L5.38974 -7.0035L5.15396 -7.00909L4.91818 -7.00355L5.15278 2.99369ZM5.1509 2.99374L5.1506 12.9937L5.26806 12.9937L5.38549 12.991L5.1509 2.99374ZM3.69444 2.99369H-6.30556V12.9934L3.69414 12.9937L3.69444 2.99369ZM3.69444 0.352205V-9.6478H-6.30556V0.352205H3.69444ZM5.15278 0.352205L5.16304 -9.6478H5.15278V0.352205ZM4.02098 3.34591L9.78066 11.5206L35.5753 -6.6536L4.02113 -6.65409L4.02098 3.34591ZM3.69444 3.64165H-6.30556V30.6317L11.2803 10.1573L3.69444 3.64165ZM3.69444 3.3459L3.6946 -6.6541L-6.30556 -6.65425V3.3459H3.69444ZM1.84722 0.352205V-9.6478L1.83696 -9.64779L1.84722 0.352205ZM3.30556 0.352205H13.3056V-9.6478H3.30556V0.352205ZM3.30556 2.99369V12.9937H13.3056V2.99369H3.30556ZM1.84722 2.99369V-7.00631H1.73085L1.6145 -7.0036L1.84722 2.99369ZM1.8463 2.99372L1.83035 12.9937L1.9547 12.9939L2.07902 12.991L1.8463 2.99372ZM1.84722 6.33964L1.83983 16.3396H1.84748L1.84722 6.33964ZM3.30556 6.3396H13.3056V-3.66066L3.3053 -3.6604L3.30556 6.3396ZM3.30556 7.66038L13.3056 7.67293V7.66038H3.30556ZM3.30556 5.98739L3.30586 15.9874L13.3056 15.9871V5.98739H3.30556ZM1.84722 5.98743L1.84572 15.9874H1.84753L1.84722 5.98743ZM1.8463 3.34592L2.08992 -6.65111L1.96451 -6.65417L1.83906 -6.65408L1.8463 3.34592ZM1.84722 3.34594L1.6036 13.343L1.72552 13.3459L1.84748 13.3459L1.84722 3.34594ZM3.30556 3.34591H13.3056V-6.65436L3.3053 -6.65409L3.30556 3.34591ZM5.1509 3.34594V-6.65406H5.14365L5.13639 -6.65405L5.1509 3.34594ZM5.15278 3.34594V13.3459H5.26915L5.3855 13.3432L5.15278 3.34594ZM5.1537 3.34592L5.16516 -6.65407L5.04305 -6.65421L4.92098 -6.65137L5.1537 3.34592ZM10.0872 12.2858C12.3723 11.2553 14.4224 9.4564 15.7034 6.9847L-2.05345 -2.21818C-1.12623 -4.00724 0.325774 -5.25181 1.86554 -5.94616L10.0872 12.2858ZM15.7034 6.9847C16.9991 4.48481 17.3551 1.56742 16.6295 -1.22526L-2.72775 3.80418C-3.26262 1.74556 -2.99527 -0.400941 -2.05345 -2.21818L15.7034 6.9847ZM16.6295 -1.22526C15.9096 -3.99622 14.2325 -6.25546 12.1272 -7.76515L0.472045 8.48773C-0.980388 7.44617 -2.19852 5.84108 -2.72775 3.80418L16.6295 -1.22526ZM12.1272 -7.76515C10.0362 -9.26466 7.57674 -10.0005 5.15063 -10L5.15493 10C3.56146 10.0003 1.91028 9.51911 0.472045 8.48773L12.1272 -7.76515ZM5.15278 -10H1.84722V10H5.15278V-10ZM1.84937 -10C-0.576748 -10.0005 -3.03622 -9.26466 -5.12724 -7.76515L6.52796 8.48773C5.08972 9.51911 3.43854 10.0003 1.84507 10L1.84937 -10ZM-5.12724 -7.76515C-7.23246 -6.25547 -8.90959 -3.99622 -9.62954 -1.22526L9.72775 3.80418C9.19851 5.84109 7.98038 7.44618 6.52796 8.48773L-5.12724 -7.76515ZM-9.62954 -1.22526C-10.3551 1.56742 -9.99906 4.48481 -8.70344 6.9847L9.05345 -2.21818C9.99527 -0.400941 10.2626 1.74556 9.72775 3.80418L-9.62954 -1.22526ZM-8.70344 6.9847C-7.42243 9.4564 -5.37232 11.2553 -3.08719 12.2858L5.13446 -5.94616C6.67423 -5.25181 8.12623 -4.00724 9.05345 -2.21818L-8.70344 6.9847ZM-3.0852 -5.94706C-4.97486 -5.09542 -6.70449 -3.72049 -7.97782 -1.85849L8.53109 9.43115C7.61942 10.7643 6.40719 11.7122 5.13247 12.2867L-3.0852 -5.94706ZM-7.97782 -1.85849C-9.25962 0.0158898 -10 2.27805 -10 4.66676L10 4.6666C10 6.43323 9.45122 8.08564 8.53109 9.43115L-7.97782 -1.85849ZM-10 4.66676C-9.99998 7.05547 -9.25954 9.31762 -7.97772 11.192L8.53102 -0.0979123C9.45116 1.24758 9.99999 2.89998 10 4.6666L-10 4.66676ZM-7.97772 11.192C-6.70436 13.054 -4.97472 14.4289 -3.08505 15.2805L5.13237 -2.9534C6.40709 -2.37892 7.61933 -1.43103 8.53102 -0.0979123L-7.97772 11.192ZM-3.09043 -2.95097C-4.90041 -2.13399 -6.56321 -0.837125 -7.81966 0.91051L8.41916 12.5853C7.52177 13.8335 6.3588 14.7269 5.13775 15.278L-3.09043 -2.95097ZM-7.81966 0.91051C-9.08338 2.66825 -9.86899 4.79661 -9.98465 7.07743L9.98968 8.09032C9.90421 9.77582 9.32383 11.327 8.41916 12.5853L-7.81966 0.91051ZM-9.98465 7.07743C-10.1004 9.36032 -9.53326 11.5749 -8.42739 13.4737L8.85518 3.4083C9.65406 4.77999 10.0753 6.40276 9.98968 8.09032L-9.98465 7.07743ZM-8.42739 13.4737C-7.32807 15.3613 -5.76741 16.8234 -4.01342 17.8064L5.76465 0.359634C6.95909 1.02906 8.06285 2.04786 8.85518 3.4083L-8.42739 13.4737ZM-4.01342 17.8064C-2.26336 18.7872 -0.328356 19.2908 1.59808 19.3307L2.01244 -0.664958C3.28102 -0.63867 4.57414 -0.307594 5.76465 0.359634L-4.01342 17.8064ZM1.59808 19.3307C3.52446 19.3707 5.47196 18.9477 7.25213 18.0493L-1.75903 0.194308C-0.553657 -0.414027 0.743909 -0.691245 2.01244 -0.664958L1.59808 19.3307ZM7.25213 18.0493C9.03567 17.1491 10.6496 15.769 11.8297 13.9496L-4.94972 3.06611C-4.1029 1.76055 -2.96777 0.804343 -1.75903 0.194308L7.25213 18.0493ZM11.8297 13.9496C13.0168 12.1194 13.6948 9.94459 13.6944 7.65883L-6.30556 7.66194C-6.30582 5.97213 -5.80352 4.38245 -4.94972 3.06611L11.8297 13.9496ZM13.6944 7.66038V5.69168H-6.30556V7.66038H13.6944ZM-3.90136 12.1958C-2.73585 13.5569 -1.3123 14.5884 0.216359 15.2783L8.44365 -2.95111C9.47569 -2.48533 10.4648 -1.77648 11.2902 -0.812453L-3.90136 12.1958ZM0.216359 15.2783C1.74364 15.9676 3.37817 16.3184 5.00695 16.3383L5.2505 -3.66026C6.32445 -3.64718 7.41299 -3.41626 8.44365 -2.95111L0.216359 15.2783ZM5.00695 16.3383C6.6357 16.3581 8.27553 16.0472 9.81495 15.3986L2.04977 -3.03239C3.08609 -3.469 4.17656 -3.67334 5.2505 -3.66026L5.00695 16.3383ZM9.81495 15.3986C11.3556 14.7495 12.7997 13.7592 13.9967 12.4364L-0.833314 -0.982672C0.0119881 -1.91686 1.01222 -2.59526 2.04977 -3.03239L9.81495 15.3986ZM13.9967 12.4364C15.1974 11.1094 16.1176 9.47994 16.6085 7.64439L-2.71233 2.47675C-2.35201 1.1296 -1.68233 -0.0443863 -0.833314 -0.982672L13.9967 12.4364ZM16.6085 7.64439C17.1008 5.80404 17.1298 3.87034 16.69 2.01263L-2.77207 6.61997C-3.09553 5.25362 -3.07393 3.8287 -2.71233 2.47675L16.6085 7.64439ZM16.69 2.01263C16.2513 0.159344 15.3748 -1.50117 14.205 -2.86606L-0.980724 10.149C-1.81029 9.18112 -2.44965 7.9819 -2.77207 6.61997L16.69 2.01263ZM14.205 -2.86606C13.039 -4.22657 11.6151 -5.25735 10.0862 -5.94659L1.8665 12.2862C0.834356 11.8209 -0.154913 11.1126 -0.980724 10.149L14.205 -2.86606ZM-3.38888 1.66052C-3.3856 -0.973429 -2.22087 -3.27262 -0.531347 -4.80374L12.899 10.016C15.1349 7.98976 16.6069 5.01941 16.6111 1.68542L-3.38888 1.66052ZM-0.531347 -4.80374C1.12554 -6.30529 3.17848 -7.00314 5.13776 -7.00627L5.16969 12.9937C7.90192 12.9893 10.6957 12.0127 12.899 10.016L-0.531347 -4.80374ZM5.39069 -7.00348L5.38974 -7.0035L4.91581 12.9909L4.91676 12.9909L5.39069 -7.00348ZM4.91818 -7.00355L4.91631 -7.00351L5.38549 12.991L5.38737 12.9909L4.91818 -7.00355ZM5.1512 -7.00626L3.69475 -7.00631L3.69414 12.9937L5.1506 12.9937L5.1512 -7.00626ZM13.6944 2.99369V0.352205H-6.30556V2.99369H13.6944ZM3.69444 10.3522H5.15278V-9.6478H3.69444V10.3522ZM5.14251 10.3522C3.18249 10.3502 1.12852 9.65298 -0.529342 8.1515L12.8963 -6.67252C10.6917 -8.66921 7.89634 -9.64498 5.16304 -9.64779L5.14251 10.3522ZM-0.529342 8.1515C-2.21988 6.62043 -3.38559 4.32055 -3.38888 1.68549L16.6111 1.66046C16.6069 -1.67494 15.1336 -4.64624 12.8963 -6.67252L-0.529342 8.1515ZM-1.73871 -4.82881C-2.51888 -4.27912 -3.24552 -3.62606 -3.89144 -2.87404L11.2803 10.1573C10.8242 10.6884 10.3169 11.1428 9.78066 11.5206L-1.73871 -4.82881ZM13.6944 3.64165V3.3459H-6.30556V3.64165H13.6944ZM3.69429 13.3459L4.02082 13.3459L4.02113 -6.65409L3.6946 -6.6541L3.69429 13.3459ZM10.3889 1.68549C10.3856 4.32054 9.21989 6.62042 7.52934 8.1515L-5.89632 -6.67252C-8.13365 -4.64624 -9.60693 -1.67493 -9.6111 1.66046L10.3889 1.68549ZM7.52934 8.1515C5.87148 9.65298 3.81751 10.3502 1.85749 10.3522L1.83696 -9.64779C-0.896343 -9.64498 -3.69166 -8.66922 -5.89632 -6.67252L7.52934 8.1515ZM1.84722 10.3522H3.30556V-9.6478H1.84722V10.3522ZM-6.69444 0.352205V2.99369H13.3056V0.352205H-6.69444ZM3.30556 -7.00631H1.84722V12.9937H3.30556V-7.00631ZM1.6145 -7.0036L1.61358 -7.00358L2.07902 12.991L2.07994 12.991L1.6145 -7.0036ZM1.86225 -7.00627C3.8215 -7.00315 5.87441 -6.30531 7.5313 -4.8038L-5.89891 10.0161C-3.69564 12.0128 -0.901855 12.9893 1.83035 12.9937L1.86225 -7.00627ZM7.5313 -4.8038C9.22081 -3.27272 10.3856 -0.973579 10.3889 1.66033L-9.6111 1.68561C-9.60689 5.01956 -8.13482 7.98986 -5.89891 10.0161L7.5313 -4.8038ZM1.83983 -1.01887C2.83191 -1.0196 3.83375 -0.84425 4.79584 -0.483956L-2.21827 18.2458C-0.902044 18.7387 0.479326 18.9821 1.85462 18.9811L1.83983 -1.01887ZM4.79584 -0.483956C5.7585 -0.123449 6.69343 0.427337 7.52509 1.17993L-5.89455 16.0094C-4.7918 17.0073 -3.53506 17.7526 -2.21827 18.2458L4.79584 -0.483956ZM7.52509 1.17993C8.35873 1.93431 9.07916 2.88433 9.59195 4.00487L-8.59426 12.3272C-7.93475 13.7684 -6.99926 15.0097 -5.89455 16.0094L7.52509 1.17993ZM9.59195 4.00487C10.1063 5.12895 10.3877 6.3744 10.3877 7.66038H-9.61228C-9.61228 9.29343 -9.25538 10.8826 -8.59426 12.3272L9.59195 4.00487ZM10.3877 7.66038C10.3877 8.94637 10.1063 10.1918 9.59195 11.3159L-8.59426 2.99352C-9.25538 4.43821 -9.61228 6.02733 -9.61228 7.66038H10.3877ZM9.59195 11.3159C9.07917 12.4364 8.35874 13.3864 7.52509 14.1408L-5.89455 -0.688643C-6.99928 0.31106 -7.93476 1.55237 -8.59426 2.99352L9.59195 11.3159ZM7.52509 14.1408C6.69343 14.8934 5.7585 15.4442 4.79584 15.8047L-2.21827 -2.92499C-3.53506 -2.43187 -4.7918 -1.68655 -5.89455 -0.688643L7.52509 14.1408ZM4.79584 15.8047C3.83375 16.165 2.83191 16.3404 1.83983 16.3396L1.85462 -3.66036C0.479326 -3.66138 -0.902044 -3.41791 -2.21827 -2.92499L4.79584 15.8047ZM1.84748 16.3396L3.30581 16.3396L3.3053 -3.6604L1.84697 -3.66036L1.84748 16.3396ZM-6.69444 6.3396V7.66038H13.3056V6.3396H-6.69444ZM-6.69444 7.64784C-6.69113 5.01276 -5.5254 2.71286 -3.83484 1.18179L9.5907 16.0059C11.8281 13.9797 13.3014 11.0083 13.3055 7.67293L-6.69444 7.64784ZM-3.83484 1.18179C-2.17694 -0.319684 -0.122956 -1.01688 1.83709 -1.01887L1.85736 18.9811C4.59068 18.9784 7.38602 18.0026 9.5907 16.0059L-3.83484 1.18179ZM3.30525 -4.01261L1.84692 -4.01257L1.84753 15.9874L3.30586 15.9874L3.30525 -4.01261ZM1.84873 -4.01257C3.81135 -4.01227 5.8685 -3.31515 7.52863 -1.81185L-5.89592 13.0132C-3.68895 15.0117 -0.890204 15.987 1.84572 15.9874L1.84873 -4.01257ZM7.52863 -1.81185C9.22159 -0.278818 10.3882 2.02488 10.3891 4.6636L-9.61085 4.67059C-9.60969 8.00966 -8.13573 10.985 -5.89592 13.0132L7.52863 -1.81185ZM10.3891 4.6636C10.3901 7.30238 9.22498 9.60716 7.53265 11.1416L-5.90124 -3.675C-8.14007 -1.6451 -9.61202 1.33145 -9.61085 4.67059L10.3891 4.6636ZM7.53265 11.1416C5.87317 12.6462 3.81617 13.3445 1.85354 13.3459L1.83906 -6.65408C-0.896866 -6.6521 -3.69527 -5.67512 -5.90124 -3.675L7.53265 11.1416ZM1.60268 13.343L1.6036 13.343L2.09085 -6.65109L2.08992 -6.65111L1.60268 13.343ZM1.84748 13.3459L3.30582 13.3459L3.3053 -6.65409L1.84696 -6.65406L1.84748 13.3459ZM-6.69444 3.34591V5.98739H13.3056V3.34591H-6.69444ZM5.15564 -4.01257C7.11769 -4.012 9.17413 -3.31502 10.8339 -1.81235L-2.5894 13.0138C-0.382962 15.0115 2.41481 15.9866 5.14991 15.9874L5.15564 -4.01257ZM10.8339 -1.81235C12.5264 -0.28 13.6931 2.0226 13.6949 4.66044L-6.30507 4.67463C-6.3027 8.0126 -4.82863 10.9865 -2.5894 13.0138L10.8339 -1.81235ZM13.6949 4.66044C13.6968 7.2984 12.5332 9.6032 10.842 11.1383L-2.60021 -3.67068C-4.83745 -1.63992 -6.30744 1.33654 -6.30507 4.67463L13.6949 4.66044ZM10.842 11.1383C9.18361 12.6437 7.12747 13.3431 5.16541 13.3459L5.13639 -6.65405C2.40128 -6.65008 -0.395792 -5.67164 -2.60021 -3.67068L10.842 11.1383ZM5.1509 13.3459H5.15278V-6.65406H5.1509V13.3459ZM5.3855 13.3432L5.38642 13.3432L4.92098 -6.65137L4.92006 -6.65135L5.3855 13.3432ZM5.14224 13.3459C3.18017 13.3437 1.12394 12.6449 -0.534805 11.1402L12.9025 -3.67322C10.6976 -5.67334 7.90029 -6.65094 5.16516 -6.65407L5.14224 13.3459ZM-0.534805 11.1402C-2.22636 9.60581 -3.39075 7.30156 -3.38982 4.6636L16.6102 4.67059C16.6113 1.33249 15.1403 -1.64334 12.9025 -3.67322L-0.534805 11.1402ZM-3.38982 4.6636C-3.3889 2.02569 -2.22297 -0.277468 -0.530788 -1.81051L12.8972 13.0114C15.1359 10.9832 16.609 8.00864 16.6102 4.67059L-3.38982 4.6636ZM-0.530788 -1.81051C1.12861 -3.31385 3.18498 -4.01144 5.14705 -4.01257L5.1585 15.9874C7.89363 15.9859 10.6913 15.0099 12.8972 13.0114L-0.530788 -1.81051Z" fill="white" mask="url(#path-2-inside-1)"/>
</svg>
